<svg xmlns="http://www.w3.org/2000/svg"
shape-rendering="geometricPrecision"
viewBox="35 315 790 220">
  <metadata>null</metadata>

<path d="
M 104.377 406.304
C 76.386 424.217 55.609 455.262 55.137 489.155
C 55.046 495.71 55.267 502.17 56.899 508.522
C 53.938 507.276 51.15 504.995 48.7 502.951
C 48.209 502.542 46.289 500.68 46.38 502.072
C 45.683 501.045 45.33 499.552 44.859 498.388
C 43.633 495.361 42.572 492.315 41.599 489.204
C 33.744 464.092 44.121 434.549 65.494 419.437
C 73.9 413.494 83.457 409.399 93.549 407.413
C 96.308 406.87 99.198 406.167 102.002 405.989
C 102.835 405.936 103.591 406.445 104.377 406.304 Z"
opacity="1" fill="rgb(208,233,198)" fill-rule="evenodd" />
<path d="
M 104.377 406.304
C 108 404.215 111.474 402.081 115.321 400.407
C 117.109 399.629 120.031 399.15 121.537 398.038
C 129.9 395.513 137.613 391.842 146.558 391.933
C 150.156 392.981 153.414 393.27 156.396 395.846
C 164.501 402.848 165.165 416.286 156.247 422.856
C 152.43 425.667 147.96 425.732 143.461 426.419
C 137.382 427.348 131.323 428.808 125.618 431.133
C 101.345 441.024 80.885 458.837 69.759 482.774
C 66.789 489.164 64.918 495.823 64.021 502.8
C 63.683 505.427 63.176 509.016 63.875 511.589
C 78.631 515.635 92.099 509.96 101.37 498.131
C 104.631 493.97 107.067 489.1 108.855 484.147
C 109.558 482.198 110.177 480.212 110.695 478.207
C 110.871 477.526 111.141 476.057 111.927 476.5
C 115.056 481.271 119.39 485.282 123.54 489.158
C 125.501 490.989 127.959 492.649 129.542 494.824
C 128.54 494.55 128.569 496.138 128.362 497.032
C 127.763 499.622 127.325 502.174 126.36 504.672
C 123.793 511.313 120.223 517.326 115.013 522.246
C 112.502 524.617 109.471 526.596 106.401 528.162
C 83.651 539.76 55.236 524.785 46.38 502.072
C 46.289 500.68 48.209 502.542 48.7 502.951
C 51.15 504.995 53.938 507.276 56.899 508.522
C 55.267 502.17 55.046 495.71 55.137 489.155
C 55.609 455.262 76.386 424.217 104.377 406.304 Z"
opacity="1" fill="rgb(105,190,81)" fill-rule="evenodd" />
<path d="
M 159.552 322.111
C 157.875 322.219 155.732 323.261 154.227 324.035
C 151.868 325.249 149.33 326.235 147.327 328.011
C 145.863 327.889 141.599 330.392 141.853 332.032
C 140.662 331.905 139.356 334.247 138.616 335.106
C 135.553 338.663 133.068 342.62 131.685 347.134
C 126.785 363.126 135.124 380.853 146.558 391.933
C 137.613 391.842 129.9 395.513 121.537 398.038
C 119.195 395.416 116.432 393.222 114.185 390.469
C 108.553 383.567 105.023 374.877 104.439 365.994
C 102.54 337.105 132.955 317.281 159.552 322.111 Z"
opacity="1" fill="rgb(98,179,75)" fill-rule="evenodd" />
<path d="
M 200.356 465.877
C 200.126 464.273 202.435 461.358 203.083 459.851
C 204.758 455.954 206.281 452.064 207.399 447.962
C 207.961 445.898 208.088 443.074 209.305 441.305
C 213.68 439.15 219.267 438.568 224.094 438.542
C 229.523 438.512 235.057 439.435 240.114 441.438
C 261.686 449.984 268.334 476.662 260.844 496.895
C 258.898 502.152 255.935 509.354 251.269 512.821
C 252.442 508.902 252.948 504.043 252.777 499.93
C 249.836 501.653 247.264 503.939 244.365 505.734
C 239.854 508.528 235.197 510.801 230.221 512.645
C 209.467 520.336 186.611 520.225 165.536 513.81
C 158.666 511.719 152.523 508.43 146.048 505.456
C 140.174 502.667 134.99 498.324 129.542 494.824
C 127.959 492.649 125.501 490.989 123.54 489.158
C 119.39 485.282 115.056 481.271 111.927 476.5
C 111.565 475.58 110.818 474.865 110.408 473.949
C 109.545 472.016 109.294 469.586 109.42 467.488
C 110.086 456.384 120.608 449.188 131.166 452.153
C 137.19 453.845 139.81 458.492 143.624 462.931
C 148.391 468.48 153.682 473.727 159.627 478.023
C 180.287 492.951 205.793 501.713 231.457 498.583
C 239.031 497.659 245.663 494.828 252.723 492.211
C 252.87 488.91 250.413 484.289 248.902 481.431
C 239.589 463.816 217.899 461.381 200.356 465.877 Z"
opacity="1" fill="rgb(11,123,208)" fill-rule="evenodd" />
<path d="
M 147.327 328.011
C 150.167 329.775 153.748 330.684 156.788 332.113
C 162.547 334.82 168.03 338.158 172.948 342.208
C 195.627 360.88 209.321 390.948 210.47 420.096
C 210.516 421.256 210.98 422.237 210.988 423.389
C 211.008 425.97 210.435 428.537 210.315 431.115
C 210.26 432.396 210.331 433.652 210.105 434.918
C 209.847 436.6 209.521 438.271 209.274 439.956
C 209.203 440.442 208.608 441.442 209.305 441.305
C 208.088 443.074 207.961 445.898 207.399 447.962
C 206.281 452.064 204.758 455.954 203.083 459.851
C 202.435 461.358 200.126 464.273 200.356 465.877
C 197.897 468.433 195.709 470.531 192.253 471.676
C 182.837 474.797 172.672 469.081 170.429 459.39
C 169.096 453.63 172.087 448.916 173.781 443.585
C 176.395 435.358 178.349 427.31 179.228 418.702
C 180.731 403.996 178.155 389.276 173.515 375.357
C 170.057 364.981 164.993 354.83 157.978 346.37
C 154.911 342.67 151.64 339.139 147.847 336.165
C 145.945 334.674 143.672 333.586 141.853 332.032
C 141.599 330.392 145.863 327.889 147.327 328.011 Z"
opacity="1" fill="rgb(11,128,216)" fill-rule="evenodd" />
<path d="
M 146.048 505.456
C 152.523 508.43 158.666 511.719 165.536 513.81
C 186.611 520.225 209.467 520.336 230.221 512.645
C 235.197 510.801 239.854 508.528 244.365 505.734
C 247.264 503.939 249.836 501.653 252.777 499.93
C 252.948 504.043 252.442 508.902 251.269 512.821
C 250.508 513.98 249.343 514.905 248.445 515.967
C 245.015 520.022 241.36 523.388 236.987 526.414
C 216.99 540.251 189.012 541.227 168.227 528.415
C 161.182 524.072 155.002 519.015 150.027 512.362
C 148.707 510.597 145.939 507.815 146.048 505.456 Z"
opacity="1" fill="rgb(198,219,239)" fill-rule="evenodd" />
<path d="
M 147.327 328.011
C 149.33 326.235 151.868 325.249 154.227 324.035
C 155.732 323.261 157.875 322.219 159.552 322.111
C 168.894 324.073 177.552 325.867 185.948 330.67
C 207.026 342.728 218.587 366.891 218.228 390.75
C 218.139 396.644 217.23 402.617 215.578 408.276
C 214.32 412.586 212.353 416.671 211.37 421.05
C 210.855 423.342 211.153 425.738 210.977 428.062
C 210.797 429.847 210.616 431.58 210.513 433.377
C 210.441 433.928 210.347 434.417 210.105 434.918
C 210.331 433.652 210.26 432.396 210.315 431.115
C 210.435 428.537 211.008 425.97 210.988 423.389
C 210.98 422.237 210.516 421.256 210.47 420.096
C 209.321 390.948 195.627 360.88 172.948 342.208
C 168.03 338.158 162.547 334.82 156.788 332.113
C 153.748 330.684 150.167 329.775 147.327 328.011 Z"
opacity="1" fill="rgb(197,219,240)" fill-rule="evenodd" />
<path d="
M 285.873 378.06
C 286.529 376.193 287.362 374.239 288.944 372.954
C 291.241 371.087 293.803 371.187 296.604 371.202
C 299.737 371.218 302.871 371.214 306.005 371.223
C 322.505 371.267 339.005 371.177 355.505 371.189
C 359.943 371.192 364.38 371.18 368.818 371.175
C 371.509 371.171 374.421 370.89 376.924 372.085
C 383.382 375.168 383.434 385.463 377.178 388.808
C 375.302 389.812 372.949 389.707 370.889 389.705
C 367.927 389.703 364.964 389.712 362.002 389.719
C 355.8 389.735 349.542 389.575 343.349 389.909
C 343.171 416.606 343.319 443.307 343.283 470.006
C 343.279 473.131 343.262 476.257 343.284 479.382
C 343.297 481.176 343.5 483.138 343.058 484.893
C 342.063 488.839 338.539 491.529 334.517 491.694
C 333.251 491.745 331.838 491.613 330.627 491.232
C 324.364 489.262 324.079 483.873 324.096 478.252
C 324.109 474.168 324.146 470.086 324.138 466.003
C 324.105 449.336 324.137 432.669 324.169 416.002
C 324.186 407.342 324.678 398.477 324.108 389.848
C 316.825 389.484 309.459 389.808 302.168 389.812
C 298.717 389.813 294.879 390.241 291.497 389.458
C 286.518 388.306 284.787 382.477 285.873 378.06 Z"
opacity="1" fill="rgb(15,124,214)" fill-rule="evenodd" />
<path d="
M 385.361 406.555
C 386.067 404.741 386.966 403.115 388.639 402.023
C 392.203 399.699 398.071 400.54 400.65 403.952
C 403.253 407.396 402.758 411.568 403.432 415.562
C 405.131 414.13 406.134 411.454 407.659 409.741
C 411.646 405.263 417.637 401.525 423.545 400.323
C 426.13 399.798 429.273 399.287 431.785 400.362
C 436.993 402.591 437.191 410.636 434.504 414.819
C 431.616 419.315 426.192 418.437 421.706 420.248
C 414.25 423.258 408.519 428.72 405.915 436.483
C 404.058 442.018 404.07 447.729 404.075 453.504
C 404.079 459.671 404.132 465.839 404.144 472.007
C 404.149 474.824 404.116 477.642 404.123 480.46
C 404.129 482.691 404.257 484.916 403.2 486.955
C 399.915 493.295 387.946 493.198 385.764 485.893
C 385.236 484.124 385.418 482.145 385.419 480.322
C 385.421 477.214 385.419 474.105 385.42 470.996
C 385.425 460.829 385.41 450.663 385.392 440.496
C 385.379 432.997 385.361 425.498 385.297 418
C 385.266 414.349 384.607 410.132 385.361 406.555 Z"
opacity="1" fill="rgb(16,125,215)" fill-rule="evenodd" />
<path d="
M 446.406 373.078
C 449.297 360.709 467.693 361.089 470.03 373.6
C 470.347 375.297 470.227 377.121 469.828 378.791
C 469.431 380.456 468.613 382.056 467.531 383.382
C 459.728 392.944 443.547 385.312 446.406 373.078 Z"
opacity="1" fill="rgb(18,127,217)" fill-rule="evenodd" />
<path d="
M 448.92 408.089
C 450.359 398.704 463.866 398.279 467.006 406.689
C 467.776 408.751 467.377 411.344 467.379 413.507
C 467.385 418.006 467.386 422.506 467.388 427.006
C 467.398 442.339 467.313 457.671 467.319 473.004
C 467.321 478.872 469.218 488.091 462.289 490.831
C 461.411 491.178 460.49 491.413 459.552 491.526
C 458.277 491.679 456.993 491.625 455.731 491.39
C 447.205 489.8 448.809 480.5 448.824 473.999
C 448.859 459.166 448.78 444.332 448.818 429.499
C 448.829 424.999 448.84 420.498 448.823 415.999
C 448.813 413.401 448.525 410.665 448.92 408.089 Z"
opacity="1" fill="rgb(18,126,215)" fill-rule="evenodd" />
<path d="
M 487.412 474.066
C 488.934 468.868 494.397 466.005 499.454 468.352
C 502.192 469.623 504.611 471.555 507.295 472.944
C 513.522 476.167 521.409 477.603 528.263 475.785
C 531.54 474.915 534.645 473.428 536.303 470.323
C 536.879 469.246 537.267 468.142 537.38 466.921
C 538.089 459.25 530.922 456.458 524.829 454.54
C 511.531 450.352 494.227 447.928 489.926 432.232
C 489.288 429.903 489.007 427.477 489.052 425.061
C 489.101 422.419 489.616 419.889 490.421 417.382
C 496.15 399.539 518.671 397.017 534.265 400.969
C 539.198 402.219 544.828 404.029 548.566 407.667
C 553.971 412.93 550.631 422.251 543.041 422.64
C 540.044 422.794 537.4 420.821 534.879 419.472
C 528.848 416.245 521.275 414.359 514.506 416.276
C 510.776 417.333 507.174 420.089 507.04 424.258
C 506.742 433.544 518.469 435.321 525.358 437.209
C 532.546 439.18 540.435 441.163 546.393 445.884
C 556.766 454.102 558.713 469.834 550.771 480.429
C 540.138 494.614 518.322 495.721 502.917 489.984
C 496.797 487.704 484.908 482.622 487.412 474.066 Z"
opacity="1" fill="rgb(112,193,90)" fill-rule="evenodd" />
<path d="
M 565.45 442.599
C 566.961 433.865 569.005 425.807 574.152 418.38
C 585.766 401.619 609.701 394.181 628.32 403.469
C 631.557 405.083 634.71 407.341 637.155 410.026
C 638.408 411.402 639.325 413.053 640.552 414.439
C 640.537 410.81 640.525 406.167 643.075 403.265
C 646.646 399.2 654.559 399.925 657.498 404.452
C 659.103 406.924 658.712 410.2 658.724 413.002
C 658.791 429.335 658.737 445.669 658.741 462.002
C 658.742 467.168 658.758 472.335 658.759 477.502
C 658.759 479.999 659.158 482.847 658.641 485.301
C 657.305 491.629 647.947 493.512 643.515 489.177
C 640.613 486.338 641.145 481.146 640.669 477.464
C 636.299 482.673 632.022 487.107 625.693 489.971
C 622.139 491.579 618.421 492.26 614.618 492.93
C 610.684 493.622 606.527 493.303 602.612 492.644
C 579.262 488.715 563.227 465.839 565.45 442.599 Z
M 584.403 442.093
C 583.778 446.473 584.199 451.129 585.464 455.356
C 586.648 459.312 588.566 463.224 591.33 466.32
C 593.762 469.044 596.587 471.209 599.839 472.871
C 616.97 481.624 637.118 469.086 639.272 450.638
C 640.437 440.657 636.838 429.826 628.978 423.332
C 616.386 412.929 596.462 416.373 588.342 430.679
C 586.333 434.218 584.978 438.063 584.403 442.093 Z"
opacity="1" fill="rgb(111,192,90)" fill-rule="evenodd" />
<path d="
M 670.466 409.09
C 671.106 405.321 673.1 401.736 677.225 401.161
C 678.953 400.92 680.708 401.151 682.443 401.176
C 682.674 401.18 683.866 401.336 683.948 401.148
C 682.859 386.991 685.938 369.972 700.464 363.804
C 703.174 362.654 706.012 362.05 708.933 361.762
C 713.247 361.336 718.214 361.522 721.898 364.099
C 726.872 367.578 726.709 375.599 721.754 379.004
C 718.497 381.242 714.602 379.682 710.952 380.154
C 704.8 380.95 702.818 387.618 702.738 392.854
C 702.705 394.965 702.696 397.081 702.716 399.192
C 702.722 399.808 702.56 400.985 703.013 401.38
C 706.762 401.25 710.523 401.289 714.273 401.328
C 716.282 401.349 718.548 401.186 720.35 402.211
C 725.54 405.161 726.459 414.704 720.81 417.77
C 718.872 418.822 716.502 418.731 714.367 418.784
C 710.541 418.88 706.708 418.777 702.881 418.806
C 703.136 423.16 702.855 427.635 702.844 432.002
C 702.822 441.002 702.773 450.001 702.766 459
C 702.761 464.651 702.755 470.301 702.769 475.951
C 702.777 478.896 703.128 482.052 702.692 484.969
C 701.632 492.07 691.829 493.722 686.896 489.681
C 683.914 487.239 684.045 484.001 684.043 480.493
C 684.041 477.16 684.072 473.828 684.082 470.495
C 684.132 453.326 684.892 435.99 684.058 418.838
C 681.441 418.739 678.698 419.216 676.14 418.451
C 672.327 417.312 670.225 412.846 670.466 409.09 Z"
opacity="1" fill="rgb(110,192,90)" fill-rule="evenodd" />
<path d="
M 729.455 440.091
C 731.537 429.924 734.495 420.968 741.865 413.269
C 757.559 396.873 786.351 394.257 803.882 409.417
C 812.019 416.453 817.549 426.891 818.402 437.656
C 818.733 441.822 818.807 447.212 815.047 450.026
C 813.416 451.247 811.06 451.464 809.095 451.644
C 805.295 451.991 801.416 451.944 797.633 452.43
C 785.936 453.933 773.964 454.33 762.204 455.228
C 757.856 455.561 753.241 455.406 748.983 456.283
C 750.438 460.003 752.056 463.508 754.753 466.533
C 762.654 475.398 775.085 477.673 786.198 474.663
C 789.919 473.655 793.221 471.917 796.451 469.843
C 798.235 468.698 800.019 466.813 802.063 466.181
C 806.117 464.926 810.687 467.544 812.493 471.151
C 814.837 475.832 812.029 480.029 808.429 482.998
C 801.844 488.429 793.268 491.484 784.903 492.735
C 764.971 495.716 744.517 486.975 734.682 468.996
C 732.304 464.651 730.797 460.12 729.773 455.289
C 728.741 450.419 728.784 445.007 729.455 440.091 Z
M 747.957 439.597
C 747.911 440.1 747.856 440.601 747.801 441.103
C 748.809 441.515 750.974 440.87 752.073 440.754
C 755.463 440.397 758.863 440.151 762.259 439.841
C 771.165 439.028 780.065 438.318 788.975 437.585
C 792.449 437.299 796.254 436.663 799.726 436.853
C 799.89 434.337 798.3 431.026 797.09 428.898
C 792.415 420.683 783.41 416.036 774.012 416.453
C 760.529 417.052 750.849 427.026 747.957 439.597 Z"
opacity="1" fill="rgb(111,192,90)" fill-rule="evenodd" />

</svg>